<mxfile host="app.diagrams.net" modified="2024-01-30T15:42:06.140Z" agent="Mozilla/5.0 (Macintosh; Intel Mac OS X 10_15_7) AppleWebKit/605.1.15 (KHTML, like Gecko) Version/17.1 Safari/605.1.15" version="23.0.2" etag="740yVu0a_AXOF2m-CzXN" type="github">
  <diagram name="Seite-1" id="LmPy3jOl3H3XXLazsRag">
    <mxGraphModel>
      <root>
        <mxCell id="0" />
        <mxCell id="1" parent="0" />
      </root>
    </mxGraphModel>
  </diagram>
</mxfile>
